
<svg width="150" height="32" viewBox="0 0 150 32" fill="none" xmlns="http://www.w3.org/2000/svg">
<path d="M37.0363 16.7C37.0363 15.464 37.3123 14.36 37.8643 13.388C38.4283 12.404 39.1903 11.642 40.1503 11.102C41.1223 10.55 42.2083 10.274 43.4083 10.274C44.8123 10.274 46.0423 10.634 47.0983 11.354C48.1543 12.074 48.8923 13.07 49.3123 14.342H46.4143C46.1263 13.742 45.7183 13.292 45.1903 12.992C44.6743 12.692 44.0743 12.542 43.3903 12.542C42.6583 12.542 42.0043 12.716 41.4283 13.064C40.8643 13.4 40.4203 13.88 40.0963 14.504C39.7843 15.128 39.6283 15.86 39.6283 16.7C39.6283 17.528 39.7843 18.26 40.0963 18.896C40.4203 19.52 40.8643 20.006 41.4283 20.354C42.0043 20.69 42.6583 20.858 43.3903 20.858C44.0743 20.858 44.6743 20.708 45.1903 20.408C45.7183 20.096 46.1263 19.64 46.4143 19.04H49.3123C48.8923 20.324 48.1543 21.326 47.0983 22.046C46.0543 22.754 44.8243 23.108 43.4083 23.108C42.2083 23.108 41.1223 22.838 40.1503 22.298C39.1903 21.746 38.4283 20.984 37.8643 20.012C37.3123 19.04 37.0363 17.936 37.0363 16.7ZM53.9847 14.576C54.3087 14.048 54.7287 13.634 55.2447 13.334C55.7727 13.034 56.3727 12.884 57.0447 12.884V15.53H56.3787C55.5867 15.53 54.9867 15.716 54.5787 16.088C54.1827 16.46 53.9847 17.108 53.9847 18.032V23H51.4647V13.028H53.9847V14.576ZM63.17 23.162C62.21 23.162 61.346 22.952 60.578 22.532C59.81 22.1 59.204 21.494 58.76 20.714C58.328 19.934 58.112 19.034 58.112 18.014C58.112 16.994 58.334 16.094 58.778 15.314C59.234 14.534 59.852 13.934 60.632 13.514C61.412 13.082 62.282 12.866 63.242 12.866C64.202 12.866 65.072 13.082 65.852 13.514C66.632 13.934 67.244 14.534 67.688 15.314C68.144 16.094 68.372 16.994 68.372 18.014C68.372 19.034 68.138 19.934 67.67 20.714C67.214 21.494 66.59 22.1 65.798 22.532C65.018 22.952 64.142 23.162 63.17 23.162ZM63.17 20.966C63.626 20.966 64.052 20.858 64.448 20.642C64.856 20.414 65.18 20.078 65.42 19.634C65.66 19.19 65.78 18.65 65.78 18.014C65.78 17.066 65.528 16.34 65.024 15.836C64.532 15.32 63.926 15.062 63.206 15.062C62.486 15.062 61.88 15.32 61.388 15.836C60.908 16.34 60.668 17.066 60.668 18.014C60.668 18.962 60.902 19.694 61.37 20.21C61.85 20.714 62.45 20.966 63.17 20.966ZM84.0445 13.028L81.1285 23H78.4105L76.5925 16.034L74.7745 23H72.0385L69.1045 13.028H71.6605L73.4245 20.624L75.3325 13.028H77.9965L79.8685 20.606L81.6325 13.028H84.0445ZM84.76 17.978C84.76 16.97 84.958 16.076 85.354 15.296C85.762 14.516 86.314 13.916 87.01 13.496C87.706 13.076 88.48 12.866 89.332 12.866C89.98 12.866 90.598 13.01 91.186 13.298C91.774 13.574 92.242 13.946 92.59 14.414V9.68H95.146V23H92.59V21.524C92.278 22.016 91.84 22.412 91.276 22.712C90.712 23.012 90.058 23.162 89.314 23.162C88.474 23.162 87.706 22.946 87.01 22.514C86.314 22.082 85.762 21.476 85.354 20.696C84.958 19.904 84.76 18.998 84.76 17.978ZM92.608 18.014C92.608 17.402 92.488 16.88 92.248 16.448C92.008 16.004 91.684 15.668 91.276 15.44C90.868 15.2 90.43 15.08 89.962 15.08C89.494 15.08 89.062 15.194 88.666 15.422C88.27 15.65 87.946 15.986 87.694 16.43C87.454 16.862 87.334 17.378 87.334 17.978C87.334 18.578 87.454 19.106 87.694 19.562C87.946 20.006 88.27 20.348 88.666 20.588C89.074 20.828 89.506 20.948 89.962 20.948C90.43 20.948 90.868 20.834 91.276 20.606C91.684 20.366 92.008 20.03 92.248 19.598C92.488 19.154 92.608 18.626 92.608 18.014Z" fill="white"/>
<path d="M108.893 10.436L104.285 23H101.225L96.6172 10.436H99.3172L102.773 20.426L106.211 10.436H108.893ZM119.674 17.798C119.674 18.158 119.65 18.482 119.602 18.77H112.312C112.372 19.49 112.624 20.054 113.068 20.462C113.512 20.87 114.058 21.074 114.706 21.074C115.642 21.074 116.308 20.672 116.704 19.868H119.422C119.134 20.828 118.582 21.62 117.766 22.244C116.95 22.856 115.948 23.162 114.76 23.162C113.8 23.162 112.936 22.952 112.168 22.532C111.412 22.1 110.818 21.494 110.386 20.714C109.966 19.934 109.756 19.034 109.756 18.014C109.756 16.982 109.966 16.076 110.386 15.296C110.806 14.516 111.394 13.916 112.15 13.496C112.906 13.076 113.776 12.866 114.76 12.866C115.708 12.866 116.554 13.07 117.298 13.478C118.054 13.886 118.636 14.468 119.044 15.224C119.464 15.968 119.674 16.826 119.674 17.798ZM117.064 17.078C117.052 16.43 116.818 15.914 116.362 15.53C115.906 15.134 115.348 14.936 114.688 14.936C114.064 14.936 113.536 15.128 113.104 15.512C112.684 15.884 112.426 16.406 112.33 17.078H117.064ZM124.033 14.576C124.357 14.048 124.777 13.634 125.293 13.334C125.821 13.034 126.421 12.884 127.093 12.884V15.53H126.427C125.635 15.53 125.035 15.716 124.627 16.088C124.231 16.46 124.033 17.108 124.033 18.032V23H121.513V13.028H124.033V14.576ZM132.607 23.162C131.791 23.162 131.059 23.018 130.411 22.73C129.763 22.43 129.247 22.028 128.863 21.524C128.491 21.02 128.287 20.462 128.251 19.85H130.789C130.837 20.234 131.023 20.552 131.347 20.804C131.683 21.056 132.097 21.182 132.589 21.182C133.069 21.182 133.441 21.086 133.705 20.894C133.981 20.702 134.119 20.456 134.119 20.156C134.119 19.832 133.951 19.592 133.615 19.436C133.291 19.268 132.769 19.088 132.049 18.896C131.305 18.716 130.693 18.53 130.213 18.338C129.745 18.146 129.337 17.852 128.989 17.456C128.653 17.06 128.485 16.526 128.485 15.854C128.485 15.302 128.641 14.798 128.953 14.342C129.277 13.886 129.733 13.526 130.321 13.262C130.921 12.998 131.623 12.866 132.427 12.866C133.615 12.866 134.563 13.166 135.271 13.766C135.979 14.354 136.369 15.152 136.441 16.16H134.029C133.993 15.764 133.825 15.452 133.525 15.224C133.237 14.984 132.847 14.864 132.355 14.864C131.899 14.864 131.545 14.948 131.293 15.116C131.053 15.284 130.933 15.518 130.933 15.818C130.933 16.154 131.101 16.412 131.437 16.592C131.773 16.76 132.295 16.934 133.003 17.114C133.723 17.294 134.317 17.48 134.785 17.672C135.253 17.864 135.655 18.164 135.991 18.572C136.339 18.968 136.519 19.496 136.531 20.156C136.531 20.732 136.369 21.248 136.045 21.704C135.733 22.16 135.277 22.52 134.677 22.784C134.089 23.036 133.399 23.162 132.607 23.162ZM147.869 17.798C147.869 18.158 147.845 18.482 147.797 18.77H140.507C140.567 19.49 140.819 20.054 141.263 20.462C141.707 20.87 142.253 21.074 142.901 21.074C143.837 21.074 144.503 20.672 144.899 19.868H147.617C147.329 20.828 146.777 21.62 145.961 22.244C145.145 22.856 144.143 23.162 142.955 23.162C141.995 23.162 141.131 22.952 140.363 22.532C139.607 22.1 139.013 21.494 138.581 20.714C138.161 19.934 137.951 19.034 137.951 18.014C137.951 16.982 138.161 16.076 138.581 15.296C139.001 14.516 139.589 13.916 140.345 13.496C141.101 13.076 141.971 12.866 142.955 12.866C143.903 12.866 144.749 13.07 145.493 13.478C146.249 13.886 146.831 14.468 147.239 15.224C147.659 15.968 147.869 16.826 147.869 17.798ZM145.259 17.078C145.247 16.43 145.013 15.914 144.557 15.53C144.101 15.134 143.543 14.936 142.883 14.936C142.259 14.936 141.731 15.128 141.299 15.512C140.879 15.884 140.621 16.406 140.525 17.078H145.259Z" fill="#00F5A0"/>
<path d="M16.4062 0C13.2417 -3.77363e-08 10.1483 0.938383 7.51713 2.69649C4.88594 4.45459 2.83518 6.95345 1.62418 9.87706C0.413176 12.8007 0.096322 16.0177 0.713685 19.1214C1.33105 22.2251 2.8549 25.0761 5.09254 27.3137C7.33018 29.5513 10.1811 31.0752 13.2848 31.6926C16.3885 32.3099 19.6056 31.9931 22.5292 30.7821C25.4528 29.5711 27.9517 27.5203 29.7098 24.8891C31.4679 22.2579 32.4062 19.1645 32.4062 16L24.4062 16C24.4062 17.5823 23.9371 19.129 23.058 20.4446C22.179 21.7602 20.9295 22.7855 19.4677 23.391C18.0059 23.9965 16.3974 24.155 14.8455 23.8463C13.2937 23.5376 11.8682 22.7757 10.7494 21.6569C9.63057 20.538 8.86865 19.1126 8.55997 17.5607C8.25129 16.0089 8.40971 14.4003 9.01521 12.9385C9.62072 11.4767 10.6461 10.2273 11.9617 9.34824C13.2773 8.46919 14.824 8 16.4062 8V0Z" fill="white"/>
<path d="M16.4063 0C14.3051 -2.5056e-08 12.2245 0.413852 10.2833 1.21793C8.34211 2.022 6.57828 3.20055 5.09254 4.68629C3.6068 6.17203 2.42825 7.93586 1.62418 9.87707C0.820102 11.8183 0.40625 13.8989 0.40625 16L8.40625 16C8.40625 14.9494 8.61318 13.9091 9.01521 12.9385C9.41725 11.9679 10.0065 11.086 10.7494 10.3431C11.4923 9.60028 12.3742 9.011 13.3448 8.60896C14.3154 8.20693 15.3557 8 16.4063 8L16.4063 0Z" fill="#00F5A0"/>
<circle cx="16.4062" cy="16" r="5" fill="#00F5A0"/>
<path d="M21.4062 16C21.4062 15.3434 21.2769 14.6932 21.0256 14.0866C20.7744 13.48 20.4061 12.9288 19.9418 12.4645C19.4775 12.0002 18.9263 11.6319 18.3197 11.3806C17.713 11.1293 17.0629 11 16.4062 11C15.7496 11 15.0995 11.1293 14.4928 11.3806C13.8862 11.6319 13.335 12.0002 12.8707 12.4645C12.4064 12.9288 12.0381 13.48 11.7869 14.0866C11.5356 14.6932 11.4062 15.3434 11.4063 16L16.4062 16H21.4062Z" fill="white"/>
</svg>
